<?xml version="1.0" encoding="iso-8859-1"?>
<!-- Generator: Adobe Illustrator 17.1.0, SVG Export Plug-In . SVG Version: 6.00 Build 0)  -->
<!DOCTYPE svg PUBLIC "-//W3C//DTD SVG 1.1//EN" "http://www.w3.org/Graphics/SVG/1.1/DTD/svg11.dtd">
<svg version="1.1" id="Capa_1" xmlns="http://www.w3.org/2000/svg" xmlns:xlink="http://www.w3.org/1999/xlink" x="0px" y="0px"
	 viewBox="0 0 448.494 448.494" style="enable-background:new 0 0 448.494 448.494;" xml:space="preserve">
<g>
	<path d="M306.569,216.625c0-37.581-30.575-68.156-68.157-68.156c-37.581,0-68.156,30.575-68.156,68.156
		c0,37.582,30.575,68.157,68.156,68.157C275.994,284.782,306.569,254.207,306.569,216.625z M185.256,216.625
		c0-29.311,23.846-53.156,53.156-53.156s53.157,23.846,53.157,53.156s-23.847,53.157-53.157,53.157S185.256,245.936,185.256,216.625
		z"/>
	<path d="M260.872,239.085c2.929-2.93,2.929-7.678,0-10.607c-2.93-2.928-7.678-2.928-10.607,0c-6.535,6.537-17.17,6.537-23.705,0
		c-2.93-2.928-7.678-2.928-10.607,0c-2.929,2.93-2.929,7.678,0,10.607c5.992,5.991,13.969,9.291,22.46,9.291
		S254.88,245.076,260.872,239.085z"/>
	<path d="M238.412,306.176c-42.805,0-80.848,25.648-96.921,65.343c-1.554,3.839,0.298,8.212,4.138,9.767
		c0.922,0.373,1.874,0.55,2.812,0.55c2.965,0,5.773-1.771,6.955-4.688c13.768-34.001,46.354-55.972,83.017-55.972
		s69.249,21.971,83.018,55.973c1.555,3.838,5.922,5.691,9.768,4.137c3.839-1.556,5.691-5.928,4.137-9.768
		C319.26,331.824,281.216,306.176,238.412,306.176z"/>
	<path d="M171.477,101.486c2.869,2.643,7.288,2.643,10.159,0l25.845-23.792l25.849,23.793c2.871,2.643,7.289,2.642,10.158-0.001
		l25.847-23.793l25.852,23.794c1.436,1.321,3.257,1.981,5.079,1.981s3.644-0.66,5.079-1.981l30.93-28.469
		c3.048-2.806,3.244-7.55,0.439-10.598c-2.807-3.048-7.549-3.244-10.598-0.439l-25.851,23.794l-25.852-23.794
		c-2.871-2.643-7.289-2.642-10.158,0.001l-25.847,23.793L212.56,61.981c-2.871-2.643-7.288-2.642-10.159,0.001l-25.845,23.792
		l-25.847-23.792c-3.046-2.807-7.792-2.609-10.597,0.438c-2.806,3.047-2.609,7.792,0.438,10.597L171.477,101.486z"/>
	<path d="M80.63,411.833h305.564c4.143,0,7.5-3.357,7.5-7.5V7.5c0-4.143-3.357-7.5-7.5-7.5H80.63C66.387,0,54.8,11.588,54.8,25.831
		v396.832c0,14.243,11.587,25.831,25.83,25.831h305.564c4.143,0,7.5-3.357,7.5-7.5s-3.357-7.5-7.5-7.5H80.63
		c-5.972,0-10.83-4.858-10.83-10.831C69.8,416.691,74.658,411.833,80.63,411.833z M69.8,25.831C69.8,19.858,74.658,15,80.63,15h2.5
		v78.968c0,4.143,3.357,7.5,7.5,7.5s7.5-3.357,7.5-7.5V15h280.564v381.833H98.13V123.968c0-4.143-3.357-7.5-7.5-7.5
		s-7.5,3.357-7.5,7.5v272.865h-2.5c-3.866,0-7.534,0.859-10.83,2.389V25.831z"/>
</g>
<g>
</g>
<g>
</g>
<g>
</g>
<g>
</g>
<g>
</g>
<g>
</g>
<g>
</g>
<g>
</g>
<g>
</g>
<g>
</g>
<g>
</g>
<g>
</g>
<g>
</g>
<g>
</g>
<g>
</g>
</svg>
