<?xml version="1.0" encoding="iso-8859-1"?>
<!-- Generator: Adobe Illustrator 19.0.0, SVG Export Plug-In . SVG Version: 6.00 Build 0)  -->
<svg version="1.1" id="Layer_1" xmlns="http://www.w3.org/2000/svg" xmlns:xlink="http://www.w3.org/1999/xlink" x="0px" y="0px"
	 viewBox="0 0 512 512" style="enable-background:new 0 0 512 512;" xml:space="preserve">
<g>
	<g>
		<g>
			<path d="M110.933,238.933h25.6c4.71,0,8.533-3.823,8.533-8.533s-3.823-8.533-8.533-8.533h-25.6c-4.71,0-8.533,3.823-8.533,8.533
				S106.223,238.933,110.933,238.933z"/>
			<path d="M110.933,136.533H179.2c4.71,0,8.533-3.823,8.533-8.533s-3.823-8.533-8.533-8.533h-68.267
				c-4.71,0-8.533,3.823-8.533,8.533S106.223,136.533,110.933,136.533z"/>
			<path d="M264.533,221.867H179.2c-4.71,0-8.533,3.823-8.533,8.533s3.823,8.533,8.533,8.533h85.333c4.71,0,8.533-3.823,8.533-8.533
				S269.244,221.867,264.533,221.867z"/>
			<path d="M256,375.467H59.733c-14.592,0-25.6-11.008-25.6-25.6v-256c0-4.71-3.823-8.533-8.533-8.533
				c-4.71,0-8.533,3.823-8.533,8.533v256c0,23.927,18.739,42.667,42.667,42.667H256c4.71,0,8.533-3.823,8.533-8.533
				S260.71,375.467,256,375.467z"/>
			<path d="M110.933,187.733h153.6c4.71,0,8.533-3.823,8.533-8.533s-3.823-8.533-8.533-8.533h-153.6
				c-4.71,0-8.533,3.823-8.533,8.533S106.223,187.733,110.933,187.733z"/>
			<path d="M341.257,280.448c-0.58-4.224-4.19-7.381-8.457-7.381H110.933c-4.71,0-8.533,3.823-8.533,8.533
				c0,21.436,19.959,59.733,59.733,59.733h111.744l16.299,162.987c0.444,4.395,4.147,7.68,8.482,7.68
				c0.282,0,0.572-0.017,0.862-0.043c4.685-0.469,8.107-4.651,7.637-9.344l-17.067-170.667c-0.435-4.361-4.105-7.68-8.491-7.68
				h-93.867v-34.133H325.35l24.593,180.352c0.631,4.676,4.958,7.962,9.609,7.305c4.668-0.64,7.936-4.941,7.305-9.609
				L341.257,280.448z M170.667,324.267h-8.533c-23.876,0-37.018-20.181-41.19-34.133h49.724V324.267z"/>
			<path d="M247.467,136.533c4.71,0,8.533-3.823,8.533-8.533s-3.823-8.533-8.533-8.533h-34.133c-4.71,0-8.533,3.823-8.533,8.533
				s3.823,8.533,8.533,8.533H247.467z"/>
			<path d="M358.4,153.6h-8.533c-4.71,0-8.533,3.823-8.533,8.533c0,4.71,3.823,8.533,8.533,8.533h8.533
				c4.71,0,8.533-3.823,8.533-8.533C366.933,157.423,363.11,153.6,358.4,153.6z"/>
			<path d="M418.688,273.178c-4.454-0.009-8.405,2.97-9.011,7.373l-25.6,187.631c-0.631,4.668,2.628,8.969,7.305,9.609
				c0.393,0.051,0.777,0.077,1.169,0.077c4.198,0,7.851-3.098,8.439-7.381l24.585-180.164c29.466,0.742,49.621,6.34,59.964,16.666
				c6.323,6.306,9.395,14.754,9.395,25.813v136.533c0,4.71,3.823,8.533,8.533,8.533s8.533-3.823,8.533-8.533V332.8
				c0-15.607-4.847-28.356-14.404-37.888C482.953,280.286,457.139,273.178,418.688,273.178z"/>
			<path d="M503.467,17.067H264.533V8.533C264.533,3.823,260.71,0,256,0s-8.533,3.823-8.533,8.533v8.533H8.533
				C3.823,17.067,0,20.89,0,25.6v34.133c0,4.71,3.823,8.533,8.533,8.533h443.733c4.71,0,8.533-3.823,8.533-8.533
				s-3.823-8.533-8.533-8.533h-435.2V34.133h477.867V51.2H486.4c-4.71,0-8.533,3.823-8.533,8.533v204.8
				c0,4.71,3.823,8.533,8.533,8.533s8.533-3.823,8.533-8.533V68.267h8.533c4.71,0,8.533-3.823,8.533-8.533V25.6
				C512,20.89,508.177,17.067,503.467,17.067z"/>
			<path d="M452.267,375.467c-4.71,0-8.533,3.823-8.533,8.533v119.467c0,4.71,3.823,8.533,8.533,8.533
				c4.71,0,8.533-3.823,8.533-8.533V384C460.8,379.29,456.977,375.467,452.267,375.467z"/>
			<path d="M392.533,290.133c0-9.412-7.654-17.067-17.067-17.067c-9.412,0-17.067,7.654-17.067,17.067
				c0,6.289,3.456,11.733,8.533,14.694v62.106c0,4.71,3.823,8.533,8.533,8.533s8.533-3.823,8.533-8.533v-62.106
				C389.077,301.867,392.533,296.422,392.533,290.133z"/>
			<path d="M401.067,153.6h-8.533c-4.71,0-8.533,3.823-8.533,8.533c0,4.71,3.823,8.533,8.533,8.533h8.533
				c4.71,0,8.533-3.823,8.533-8.533C409.6,157.423,405.777,153.6,401.067,153.6z"/>
			<path d="M392.533,85.333H358.4c-28.237,0-51.2,22.963-51.2,51.2v2.295c-5.094,2.953-8.533,8.465-8.533,14.771v17.067
				c0,6.434,3.584,12.058,8.866,14.959c1.621,16.401,8.755,30.839,9.105,31.522C324.369,232.619,336.06,256,375.467,256
				s51.098-23.381,58.837-38.852c0.341-0.683,7.475-15.121,9.097-31.522c5.282-2.901,8.866-8.525,8.866-14.959V153.6
				c0-6.306-3.439-11.819-8.533-14.771v-2.295C443.733,108.297,420.77,85.333,392.533,85.333z M435.2,170.667
				c-4.71,0-8.533,3.823-8.533,8.533c0,14.763-7.561,30.174-7.637,30.319c-8.883,17.766-16.717,29.414-43.563,29.414
				s-34.679-11.648-43.563-29.406c-0.077-0.154-7.637-15.565-7.637-30.327c0-4.71-3.823-8.533-8.533-8.533V153.6
				c4.71,0,8.533-3.823,8.533-8.533v-8.533c0-18.825,15.309-34.133,34.133-34.133h34.133c18.825,0,34.133,15.309,34.133,34.133
				v8.533c0,4.71,3.823,8.533,8.533,8.533V170.667z"/>
		</g>
	</g>
</g>
<g>
</g>
<g>
</g>
<g>
</g>
<g>
</g>
<g>
</g>
<g>
</g>
<g>
</g>
<g>
</g>
<g>
</g>
<g>
</g>
<g>
</g>
<g>
</g>
<g>
</g>
<g>
</g>
<g>
</g>
</svg>
