<?xml version="1.0" encoding="iso-8859-1"?>
<!-- Generator: Adobe Illustrator 19.0.0, SVG Export Plug-In . SVG Version: 6.00 Build 0)  -->
<svg version="1.1" id="Capa_1" xmlns="http://www.w3.org/2000/svg" xmlns:xlink="http://www.w3.org/1999/xlink" x="0px" y="0px"
	 viewBox="0 0 512 512" fill="#FFFFFF" xml:space="preserve">
<g>
	<g>
		<path d="M504,40H8c-4.418,0-8,3.582-8,8v416c0,4.418,3.582,8,8,8h496c4.418,0,8-3.582,8-8V48C512,43.582,508.418,40,504,40z
			 M16,56h112v48H16V56z M496,456H16V120h480V456z M496,104H144V56h352V104z"/>
	</g>
</g>
<g>
	<g>
		<rect x="32" y="72" width="16" height="16"/>
	</g>
</g>
<g>
	<g>
		<rect x="64" y="72" width="16" height="16"/>
	</g>
</g>
<g>
	<g>
		<rect x="464" y="72" width="16" height="16"/>
	</g>
</g>
<g>
	<g>
		<rect x="96" y="72" width="16" height="16"/>
	</g>
</g>
<g>
	<g>
		<rect x="432" y="72" width="16" height="16"/>
	</g>
</g>
<g>
	<g>
		<path d="M472,136H40c-4.418,0-8,3.582-8,8v128c0,4.418,3.582,8,8,8h432c4.418,0,8-3.582,8-8V144C480,139.582,476.418,136,472,136z
			 M464,264H48V152h416V264z"/>
	</g>
</g>
<g>
	<g>
		<path d="M200,296H40c-4.418,0-8,3.582-8,8v128c0,4.418,3.582,8,8,8h160c4.418,0,8-3.582,8-8V304C208,299.582,204.418,296,200,296z
			 M59.312,424l45.704-45.704L173.575,424H59.312z M192,417.05l-41.843-27.895l18.595-18.595L192,387.999V417.05z M192,368
			l-19.2-14.4c-3.185-2.388-7.641-2.071-10.456,0.744l-25.762,25.762l-28.142-18.762c-3.173-2.116-7.399-1.698-10.096,1L48,412.688
			V312h144V368z"/>
	</g>
</g>
<g>
	<g>
		<path d="M472,296H232c-4.418,0-8,3.582-8,8v48c0,4.418,3.582,8,8,8h240c4.418,0,8-3.582,8-8v-48C480,299.582,476.418,296,472,296z
			 M464,344H240v-32h224V344z"/>
	</g>
</g>
<g>
	<g>
		<path d="M472,376H232c-4.418,0-8,3.582-8,8v48c0,4.418,3.582,8,8,8h240c4.418,0,8-3.582,8-8v-48C480,379.582,476.418,376,472,376z
			 M464,424H240v-32h224V424z"/>
	</g>
</g>
<g>
	<g>
		<rect x="256" y="320" width="192" height="16"/>
	</g>
</g>
<g>
	<g>
		<rect x="256" y="400" width="192" height="16"/>
	</g>
</g>
<g>
</g>
<g>
</g>
<g>
</g>
<g>
</g>
<g>
</g>
<g>
</g>
<g>
</g>
<g>
</g>
<g>
</g>
<g>
</g>
<g>
</g>
<g>
</g>
<g>
</g>
<g>
</g>
<g>
</g>
</svg>
